<svg xmlns="http://www.w3.org/2000/svg" viewBox="0 0 512 512">
  <rect width="512" height="512" rx="96" fill="#6366f1"/>
  <g transform="translate(72, 184) scale(3.0)" fill="white">
    <path d="m55.18,33.5c8.7-8.64,22.82-8.61,31.48.08l8.12,8.14,19.19-19.07-8.12-8.14C96.56,5.19,84.18.03,71.01,0c-13.17-.03-25.57,5.06-34.91,14.34L0,50.21l6.44,6.46L42.53,20.8c15.71-15.61,41.21-15.54,56.84.14l1.68,1.68-6.25,6.21-1.68-1.68c-12.21-12.25-32.12-12.3-44.39-.11L12.65,62.9l6.44,6.46,36.09-35.86Z"/>
    <path d="m105.5,86.26l36.1-35.87-6.44-6.46-36.1,35.87c-15.71,15.61-41.21,15.54-56.84-.14l-1.71-1.71,6.25-6.21,1.71,1.71c12.21,12.25,32.12,12.3,44.39.11l36.09-35.87-6.44-6.46-36.09,35.87c-8.7,8.64-22.82,8.61-31.48-.08l-8.14-8.17-19.19,19.07,8.14,8.17c9.59,9.63,22.21,14.46,34.84,14.49,12.63.03,25.27-4.74,34.91-14.31Z"/>
    <path d="m80.72,41.2c-2.56-2.71-6.17-4.28-9.89-4.29-3.72,0-7.33,1.53-9.91,4.23-2.42,2.54-3.76,5.86-3.77,9.35,0,3.49,1.31,6.82,3.72,9.37,2.56,2.71,6.17,4.28,9.89,4.29,3.72,0,7.33-1.53,9.91-4.24,2.42-2.54,3.76-5.86,3.77-9.35,0-3.49-1.31-6.82-3.72-9.37Zm-6.66,12.44c-.87.91-2.03,1.41-3.27,1.41-1.24,0-2.4-.51-3.27-1.42-.8-.85-1.24-1.95-1.23-3.1,0-1.15.45-2.25,1.25-3.09h0c.87-.91,2.03-1.41,3.27-1.41,1.24,0,2.4.51,3.27,1.42.8.85,1.24,1.94,1.23,3.1,0,1.15-.45,2.25-1.25,3.09Z"/>
  </g>
</svg>
